<?xml version="1.0" standalone="no"?>
<!DOCTYPE svg PUBLIC "-//W3C//DTD SVG 20010904//EN"
 "http://www.w3.org/TR/2001/REC-SVG-20010904/DTD/svg10.dtd">
<svg version="1.0" xmlns="http://www.w3.org/2000/svg"
 width="700.000000pt" height="700.000000pt" viewBox="0 0 700.000000 700.000000"
 preserveAspectRatio="xMidYMid meet">
<metadata>
Created by potrace 1.11, written by Peter Selinger 2001-2013
</metadata>
<g transform="translate(0.000000,700.000000) scale(0.100000,-0.100000)"
fill="#000000" stroke="none">
<path d="M3065 6662 c-164 -86 -225 -122 -225 -132 0 -5 20 -41 44 -82 25 -40
65 -107 90 -148 75 -126 59 -120 164 -62 51 28 126 67 167 87 l75 36 -24 52
c-13 28 -50 112 -82 184 -33 73 -63 133 -69 133 -5 0 -68 -31 -140 -68z"/>
<path d="M4500 6305 c-5 -6 -8 -14 -6 -16 3 -2 8 -60 12 -129 3 -69 7 -134 8
-145 1 -19 9 -20 154 -22 l152 -1 1 41 c0 23 2 58 4 77 1 19 4 73 6 120 l4 85
-162 1 c-117 1 -165 -2 -173 -11z"/>
<path d="M3980 6234 c-74 -19 -138 -38 -142 -42 -4 -4 13 -75 38 -158 l46
-151 132 33 c72 19 139 34 149 34 13 0 17 5 13 18 -3 9 -8 31 -11 47 -2 17 -9
56 -15 87 -6 32 -12 70 -15 85 -12 74 -16 83 -38 82 -12 0 -83 -16 -157 -35z"/>
<path d="M3387 6011 c-63 -33 -128 -68 -144 -77 -15 -10 -29 -19 -31 -20 -3
-2 145 -253 158 -267 5 -6 240 107 268 129 4 3 -117 275 -127 287 -4 4 -60
-19 -124 -52z"/>
<path d="M5791 5998 c-18 -40 -40 -88 -48 -106 -8 -19 -23 -52 -33 -75 l-19
-41 131 -68 c73 -38 135 -65 140 -60 12 12 158 254 158 261 0 11 -274 161
-293 161 -2 0 -18 -33 -36 -72z"/>
<path d="M2860 5663 c-99 -85 -165 -146 -174 -162 -6 -9 23 -45 100 -122 60
-60 112 -109 116 -109 5 0 34 24 66 54 31 30 79 72 105 94 27 22 50 42 50 44
2 5 -192 259 -196 257 -1 0 -31 -25 -67 -56z"/>
<path d="M4108 5670 c-53 -14 -99 -27 -102 -30 -4 -4 44 -169 68 -237 4 -8 22
-6 66 8 34 10 73 21 88 24 78 14 82 16 77 38 -20 96 -35 183 -35 203 0 22 -4
24 -32 22 -18 -1 -77 -14 -130 -28z"/>
<path d="M5066 5673 c-4 -16 -8 -39 -11 -53 -3 -14 -7 -36 -10 -50 -3 -14 -8
-43 -11 -65 -3 -22 -8 -43 -10 -46 -1 -3 50 -19 115 -35 l119 -29 37 119 c20
65 33 122 28 126 -9 9 -208 60 -234 60 -11 0 -20 -10 -23 -27z"/>
<path d="M1801 5585 c-38 -53 -91 -130 -117 -172 l-48 -76 30 -23 c16 -13 32
-24 37 -24 4 0 26 -12 50 -27 90 -58 200 -123 217 -128 14 -4 26 8 53 52 20
32 67 101 105 153 l69 94 -41 33 c-22 18 -92 73 -155 123 -62 49 -117 90 -121
90 -5 0 -40 -43 -79 -95z"/>
<path d="M3639 5492 c-145 -79 -138 -63 -78 -162 28 -47 57 -95 65 -107 l14
-22 97 50 c54 28 101 54 106 58 6 6 -18 68 -80 199 -8 17 -20 32 -27 32 -6 0
-50 -22 -97 -48z"/>
<path d="M5567 5503 c-8 -21 -31 -73 -51 -115 l-35 -77 106 -56 c59 -30 107
-54 109 -52 11 12 124 207 124 214 0 9 -210 123 -228 123 -5 0 -17 -17 -25
-37z"/>
<path d="M557 5222 c-76 -183 -148 -390 -139 -396 4 -2 68 -23 142 -46 247
-77 315 -97 328 -101 10 -3 29 38 61 131 44 124 62 171 105 272 l16 37 -42 20
c-105 47 -347 155 -385 172 l-42 18 -44 -107z"/>
<path d="M4597 5282 l-38 -3 6 -96 c3 -53 7 -99 10 -102 3 -3 44 -5 91 -6 67
0 88 3 93 15 4 8 9 51 10 95 2 44 5 83 8 87 2 5 -13 8 -34 9 -21 0 -54 2 -73
2 -19 1 -52 1 -73 -1z"/>
<path d="M3245 5234 c-112 -97 -155 -138 -155 -148 0 -6 39 -50 87 -98 l86
-87 51 49 c28 27 68 61 88 77 21 15 37 30 38 33 0 9 -151 200 -158 200 -4 0
-20 -12 -37 -26z"/>
<path d="M4223 5227 c-38 -10 -72 -22 -76 -26 -4 -5 4 -49 20 -100 26 -87 29
-91 53 -86 43 8 155 36 158 40 2 1 -5 46 -14 99 -17 96 -17 96 -45 94 -16 -1
-59 -11 -96 -21z"/>
<path d="M4987 5243 c-5 -8 -13 -52 -22 -118 -4 -22 -8 -47 -11 -56 -3 -12 15
-20 87 -38 49 -13 92 -21 94 -19 2 1 17 45 33 96 21 65 27 95 19 97 -32 11
-168 45 -181 45 -8 0 -17 -3 -19 -7z"/>
<path d="M2435 5225 c-71 -99 -175 -255 -175 -262 0 -4 61 -45 135 -90 l135
-82 63 92 c34 51 73 107 87 124 13 18 22 34 19 36 -2 2 -56 44 -119 93 -139
109 -134 106 -145 89z"/>
<path d="M3841 5080 c-41 -21 -78 -43 -84 -49 -6 -6 9 -40 42 -94 l52 -86 82
45 c45 24 81 48 80 53 -1 5 -14 34 -28 64 -14 31 -29 67 -35 81 -5 14 -15 26
-22 26 -7 0 -46 -18 -87 -40z"/>
<path d="M5358 5036 c-21 -46 -38 -88 -38 -93 0 -4 38 -27 83 -50 l83 -41 27
46 c14 26 38 65 51 88 l25 41 -77 42 c-118 64 -111 65 -154 -33z"/>
<path d="M1391 4853 c-56 -135 -110 -293 -101 -298 7 -4 336 -108 369 -117 9
-2 22 23 41 77 15 44 44 122 65 173 21 54 34 97 29 102 -10 10 -343 160 -355
160 -4 0 -25 -44 -48 -97z"/>
<path d="M3487 4836 c-42 -37 -77 -71 -77 -74 0 -4 31 -39 69 -76 l70 -69 68
58 c37 33 70 60 71 61 6 4 -50 83 -90 128 l-34 39 -77 -67z"/>
<path d="M2821 4770 c-41 -60 -73 -111 -70 -113 8 -6 170 -102 197 -116 17 -9
27 -10 30 -3 2 6 30 49 63 96 32 47 59 88 59 90 0 3 -28 26 -62 52 -35 27 -65
51 -68 54 -7 8 -67 50 -72 50 -1 0 -36 -50 -77 -110z"/>
<path d="M2062 4578 c-54 -130 -85 -229 -76 -237 11 -10 267 -91 287 -91 9 0
21 16 28 38 6 20 29 81 50 135 22 53 39 99 39 101 0 2 -15 9 -32 17 -18 7 -79
34 -136 61 -57 26 -110 48 -117 48 -7 0 -27 -33 -43 -72z"/>
<path d="M2592 4347 c-34 -84 -66 -177 -61 -181 2 -1 38 -13 79 -25 41 -12 92
-28 114 -36 45 -17 51 -15 61 22 3 16 12 42 19 58 41 94 48 114 44 125 -2 6
-44 29 -93 52 -147 66 -129 67 -163 -15z"/>
<path d="M3022 4187 c-33 -74 -55 -149 -46 -157 8 -7 143 -49 172 -53 8 -1 26
33 46 85 32 86 33 86 12 97 -39 18 -157 71 -161 71 -2 0 -13 -19 -23 -43z"/>
<path d="M1885 3958 c-4 -29 -8 -60 -10 -68 -1 -8 -6 -46 -9 -85 -4 -38 -10
-85 -12 -102 -5 -31 -4 -33 28 -34 18 0 49 -2 68 -4 19 -1 78 -6 131 -9 l96
-7 7 78 c3 43 8 87 10 98 2 11 7 43 11 71 7 57 9 56 -81 69 -21 4 -55 10 -74
15 -19 5 -55 12 -80 15 -25 3 -52 8 -61 11 -13 4 -18 -6 -24 -48z"/>
<path d="M2455 3872 c-8 -40 -21 -166 -21 -204 1 -26 5 -33 21 -34 11 -1 68
-4 128 -8 l107 -6 1 38 c0 20 2 46 3 57 2 11 6 45 11 75 4 30 9 58 11 61 4 6
-205 49 -239 49 -9 0 -18 -12 -22 -28z"/>
<path d="M2906 3783 c-3 -21 -9 -69 -12 -108 l-6 -70 38 -1 c22 -1 65 -3 96
-4 65 -4 71 -1 74 38 2 15 6 54 9 87 l7 60 -73 14 c-41 7 -86 15 -100 18 -24
4 -27 1 -33 -34z"/>
<path d="M3037 3403 c-1 -1 -34 -3 -72 -6 l-70 -4 -1 -45 c0 -26 4 -74 9 -108
l10 -62 31 6 c17 4 62 12 100 18 l68 11 -6 66 c-12 118 -14 126 -42 126 -14 0
-26 -1 -27 -2z"/>
<path d="M2067 3344 c-2 -2 -163 -12 -205 -14 -8 0 -11 -10 -8 -27 2 -16 8
-64 12 -108 4 -44 8 -82 9 -85 1 -3 5 -29 9 -57 4 -29 11 -55 15 -58 5 -2 23
0 42 5 19 5 51 11 72 14 56 9 191 37 196 42 2 2 -2 38 -8 81 -18 126 -19 136
-20 176 l-1 37 -56 -2 c-30 -1 -56 -3 -57 -4z"/>
<path d="M1397 3303 c-1 0 -58 -4 -127 -8 -69 -4 -129 -9 -133 -12 -9 -6 1
-152 18 -263 2 -14 7 -47 11 -75 5 -27 9 -53 10 -57 1 -5 2 -13 3 -19 0 -6 9
-8 19 -5 9 3 35 7 57 11 22 3 85 15 140 26 55 11 118 22 140 26 22 3 41 7 43
8 2 2 -3 50 -12 107 -19 127 -25 182 -25 231 l-1 38 -71 -3 c-39 -2 -71 -4
-72 -5z"/>
<path d="M3063 3001 c-45 -14 -85 -29 -88 -33 -8 -7 17 -89 47 -156 l19 -42
36 15 c20 9 62 27 93 41 l57 25 -33 87 c-18 47 -36 87 -41 88 -4 1 -45 -10
-90 -25z"/>
<path d="M2650 2873 c-63 -19 -117 -37 -119 -39 -5 -4 26 -96 61 -181 l29 -72
78 33 c42 19 96 43 119 55 l42 21 -19 38 c-10 20 -29 70 -42 109 -13 40 -26
73 -29 72 -3 0 -57 -16 -120 -36z"/>
<path d="M2140 2713 c-80 -24 -149 -48 -154 -53 -13 -13 96 -310 114 -310 11
0 73 26 168 71 46 21 87 39 90 39 4 0 13 4 20 9 11 7 8 23 -17 82 -17 41 -41
104 -53 140 l-23 67 -145 -45z"/>
<path d="M2861 2410 c-51 -32 -97 -62 -102 -67 -8 -8 117 -203 139 -217 9 -6
197 138 197 151 0 15 -120 192 -130 192 -5 0 -52 -27 -104 -59z"/>
<path d="M2398 2129 c-73 -43 -134 -83 -136 -89 -3 -8 69 -120 150 -232 l34
-47 34 27 c197 150 222 173 208 192 -7 10 -45 66 -85 124 l-71 105 -134 -80z"/>
<path d="M3804 2074 c-25 -41 -47 -82 -48 -91 -1 -11 28 -32 88 -64 l90 -47
39 86 c21 48 39 90 40 95 1 4 -35 27 -80 51 l-82 45 -47 -75z"/>
<path d="M5398 2106 c-43 -22 -78 -45 -78 -49 0 -5 17 -47 38 -93 43 -98 36
-97 155 -33 l77 42 -25 41 c-14 23 -37 62 -52 88 -16 27 -30 47 -33 47 -3 -1
-40 -20 -82 -43z"/>
<path d="M3167 2001 l-87 -88 62 -56 c123 -109 133 -117 142 -114 5 2 43 47
84 100 l75 97 -29 22 c-16 13 -54 46 -84 75 -30 29 -60 53 -65 53 -6 0 -50
-40 -98 -89z"/>
<path d="M4167 1899 c-16 -51 -24 -95 -20 -99 10 -10 157 -50 182 -50 16 0 21
12 30 68 7 37 14 81 17 98 l6 30 -89 22 c-49 12 -91 22 -94 22 -2 0 -17 -41
-32 -91z"/>
<path d="M5030 1966 c-41 -12 -75 -26 -75 -31 0 -28 27 -162 35 -174 7 -12 22
-11 102 9 51 12 96 24 100 27 4 2 3 14 -2 26 -5 12 -19 55 -31 95 -24 82 -18
80 -129 48z"/>
<path d="M1810 1774 c-85 -52 -160 -98 -167 -102 -17 -11 218 -357 238 -350
18 6 301 231 305 243 3 7 -23 50 -58 97 -35 47 -80 113 -101 147 -20 33 -43
61 -50 61 -6 -1 -82 -44 -167 -96z"/>
<path d="M3627 1780 c-9 -11 -17 -22 -17 -24 0 -3 -23 -42 -51 -87 l-50 -83
23 -17 c35 -27 209 -112 215 -105 6 5 103 215 103 222 0 2 -28 18 -62 35 -34
17 -79 42 -100 55 -21 13 -39 24 -41 24 -1 0 -10 -9 -20 -20z"/>
<path d="M5585 1744 c-55 -30 -99 -58 -98 -64 4 -14 94 -214 99 -220 7 -7 234
113 234 123 0 12 -123 217 -130 216 -3 0 -50 -25 -105 -55z"/>
<path d="M2786 1621 c-62 -62 -106 -114 -102 -120 20 -31 225 -211 242 -211 6
0 54 56 107 124 l95 125 -71 59 c-40 33 -88 76 -107 96 -19 19 -40 36 -45 36
-6 0 -59 -49 -119 -109z"/>
<path d="M5139 1576 l-115 -29 22 -119 c12 -65 25 -122 28 -125 4 -4 52 3 108
16 100 23 148 39 148 50 0 3 -17 58 -38 121 l-37 116 -116 -30z"/>
<path d="M4038 1483 c-20 -65 -33 -121 -29 -124 11 -12 230 -62 244 -56 12 5
20 39 44 182 1 11 5 29 8 41 4 19 -5 23 -104 47 -59 15 -112 27 -118 27 -5 0
-25 -53 -45 -117z"/>
<path d="M4549 1517 c-1 -2 -3 -25 -13 -166 l-6 -91 136 0 135 0 -5 88 c-3 48
-5 105 -5 128 l-1 41 -120 1 c-66 0 -121 -1 -121 -1z"/>
<path d="M5818 1291 l-126 -67 64 -144 c36 -80 67 -146 69 -148 4 -4 253 124
279 143 18 14 15 20 -60 146 -43 73 -83 133 -89 135 -5 1 -67 -28 -137 -65z"/>
<path d="M3895 1026 c-15 -50 -36 -117 -46 -150 -10 -32 -17 -62 -14 -66 6
-10 313 -85 320 -78 3 3 8 18 11 34 2 16 6 38 9 50 3 12 7 39 11 60 3 21 12
68 19 104 8 36 13 66 11 67 -1 1 -17 5 -36 8 -19 3 -71 15 -115 26 -44 12 -94
25 -111 29 l-31 7 -28 -91z"/>
<path d="M4519 1006 c-4 -5 -8 -52 -14 -166 -4 -74 -9 -138 -11 -141 -8 -14
24 -16 181 -15 l160 1 -4 85 c-2 47 -4 99 -6 115 -2 17 -3 51 -4 77 l-1 46
-150 0 c-82 -1 -150 -1 -151 -2z"/>
</g>
</svg>
